<svg xmlns="http://www.w3.org/2000/svg" width="1240" height="1196" viewBox="0 0 1240 1196">
  <defs>
    <style>
      .cls-1 {
        fill-rule: evenodd;
      }
    </style>
  </defs>
  <path id="Color_Fill_5" data-name="Color Fill 5" class="cls-1" d="M590,88c35.051-.347,70.532-1.739,101,4l55,11v63c38.552,6.156,65.728,31.787,99,41l43-43c70.435,38.09,123.31,101.688,167,167q-22.005,22-44,44c17.38,30.168,28.25,62.71,42,98,11.22-.26,57.01-2.48,62,2,25.04,49.3,15.75,180.156,3,235h-62c-5.12,36.441-23.2,74.67-40,102q22.005,22,44,44c-0.33,1-.67,2-1,3q-16.5,24.5-33,49c-34.213,46.562-80.426,87.819-130,119q-22-21.5-44-43c-31.03,16.2-66.061,40.75-106,46v63c-37.412,6.13-84.686,22.6-131,16l-51-3q-35-6.495-70-13v-63c-39.648-5.71-75.319-29.22-106-46-8.256,6.512-40.6,43.58-46,41-43.578-17.94-109.013-90.161-136-128l-26-40,44-45c-15.062-30.826-33.147-63.575-40-102-11.219.26-57.011,2.48-62-2l-7-40c-12-65.039.621-139.17,10-195l63-1c4.254-26.822,25.735-78.634,41-96-10.227-13.256-41.018-31.51-43-47l42-58c33.086-42.139,77.741-78.076,124-107l44,43c32.4-11,59.9-33.968,98-41q0.5-31.5,1-63l54-11Zm8,21c-24.011,9.007-58.536,3.98-82,12v61a416.917,416.917,0,0,0-83,30c-13.414,6.467-26.6,20.038-43,22l-41-42c-58.8,37.1-91.693,85.273-136,136l42,42c-1.868,13.526-12.426,24.15-18,35-13.6,26.482-27.045,57.627-33,90H142c-6.183,56.747-20.076,134.876-2,193h61c3.5,33.241,18.968,65.685,31,93,5.3,12.028,16.294,22.284,18,37-7.368,5.3-41.915,40.013-40,44,15.731,38.538,94.71,116.2,131,136l42-41c14.627,2.052,26.843,14.781,39,21a467.788,467.788,0,0,0,94,36q0.5,30.99,1,62c27.217,3.14,57.9,6.5,88,11,43.037,6.43,85.874-5.45,120-11v-62c36.451-4.08,72.5-24.075,101-39l30-18,42,43h1c49.005-43.126,101.56-80.413,134-140q-21.5-22-43-44c20.05-38.935,38.38-78.282,50-127h61c8.69-59.111,14.65-139.159-3-195h-61a427.16,427.16,0,0,0-34-91q-9-16-18-32,21.5-21.5,43-43c-32.526-51.907-82.7-107.287-137-137l-43,43-61-32-62-21V120C685.971,114.383,646.59,109.181,598,109Zm64,120c48.763,1.2,92.645,21.415,127,39,123.929,63.434,250.15,231.954,189,432-19.436,63.586-53.143,125.143-98,164l-40,34-23,15-34,58-232,1c-23.788,0-79.378,5.892-97-2-14.924-46.1-52.076-69.731-86-97-37.443-30.1-69.824-79.269-90-126-11.682-27.057-19.535-57.078-26-89-13.95-68.879,1.965-147.416,22-196,53.906-130.722,148.1-204.138,304-234q2-30.5,4-61c2.231-6.279,33.786-48.774,39-51l37,52Q660,198.5,662,229Zm-43-78q-7.5,10.5-15,21-7,120.487-14,241-2,46.5-4,93v-2l34-38,35,38q-7.5-127.987-15-256C634.361,211.524,645.477,166.063,619,151Zm-44,98c-24.992,10.375-55.933,10.428-80,20-75.237,29.923-134.481,80.279-175,145-17.063,27.254-29.847,59.311-40,93-54.213,179.892,61.676,341,169,398,30.835-5.786,66.744-27.519,82-50-59.478-10.154-117.6-48.546-134-103-13.673-45.389,7.587-95.634-1-147-5.977-35.754-18.871-59.116-33-85,47.658-.282,81.182,19,106,42,0.162-33.363-13.393-52.435-22-75,23.739,6.52,49.511,6.191,70,15,18.837,8.1,30.26,22.812,46,33q5.5-105.99,11-212C575.7,312.08,578.188,252.709,575,249Zm88,0q7,143.486,14,287c18.482-15.2,33.65-30.993,60-39l56-10c-8.2,23.22-20.634,41.606-22,75,15.738-12.035,72.5-53.645,106-41l-3,3c-10.479,26.666-24.427,47.753-30,83-8.225,52.023,12.339,103.476-2,149-16.419,52.128-75.725,88.632-133,99,9.852,13.279,62.534,53.612,83,49,20.534-7.981,36.857-24.267,53-37,91.927-72.509,166.46-235.532,105-392C901.246,350.886,808.565,277.46,663,249ZM619,496c-41.723,60.825-140.874,166.519-93,281,20.433,48.861,63.83,67.425,94,105l12-12,34-30c93.312-75.123,57.064-198.893,1-283C656.5,541.244,635.1,503.708,619,496ZM476,510c39.865,89.573-46.363,178.161,15,262,8.168,11.16,16.32,22.426,28,30-45.3-91.5-8.651-181.926,34-249C544.086,529.793,506.046,512.045,476,510Zm283,0c-30.891,13.766-54.279,16.01-72,42,36.107,68.4,87.186,161.722,34,250,12.074-5.781,21.325-20.454,29-31,56.971-78.286-21.784-172.5,14-261h-5ZM393,542c14.388,23.976,27.468,63.833,21,107-4.559,30.43-7.811,73.951,1,102,15.994,50.915,74.224,75.114,127,89-38.734-40.142-108.447-66.609-92-160l17-96C444.81,567.288,428.275,546.155,393,542Zm450,0c-28.331,13.981-52.2,19.365-70,43,2.779,58.609,34.552,126.329,3,180-12.51,21.28-30.722,40.428-50,55l-29,21c51.242-22.157,104.911-32.017,126-84,11.349-27.974,8.243-78.1,3-111-6.741-42.306,8.087-79.753,21-104h-4ZM550,862c-19.563,26.935-59.17,54.8-99,60l17,31H693c13.7,0,72.848,3.331,79-2l17-29c-39.644-5.723-79.471-32.8-99-60-31.259,11.666-46.574,28.313-70,46C594.672,888.992,584.157,875.454,550,862Z"/>
</svg>
