<svg xmlns="http://www.w3.org/2000/svg" width="1240" height="1196" viewBox="0 0 1240 1196">
  <defs>
    <style>
      .cls-1 {
        fill-rule: evenodd;
      }

      .cls-2 {
        fill: none;
        stroke: #000;
        stroke-width: 20px;
      }
    </style>
  </defs>
  <path id="Color_Fill_4" data-name="Color Fill 4" class="cls-1" d="M265,854c55.762-.795,134.076-9.244,159,22,30.216,37.877,20.174,104.083-20,124-19.93,9.88-55.511,7.42-85,7v67H265V854Zm260,0h55v173H684v47H525V854Zm249,0h55l92,133q-0.5-66.493-1-133h55v220H915q-43.5-63-87-126,0.5,62.994,1,126H774V854ZM319,901v59c34.336,1.129,76.957,4.289,68-37C381.341,896.911,350.976,899.966,319,901Z"/>
  <rect class="cls-2" x="268" y="89.156" width="706.844" height="706.844"/>
  <path id="Color_Fill_3" data-name="Color Fill 3" class="cls-1" d="M463,318c27.363-.631,43.417,4.323,61,12l-14,44c-34.727-17.66-72.694-6.1-102,10V336l31-13Zm147,0c41.142-.4,66.116,22.3,96,19,16.353-1.808,23.187-10.116,35-15,30.806-12.737,71.55,1.253,90,14v48c-29.53-20.746-60.451-26.445-96-8q6-15.5,12-31v-1l-77,31-33-11c-25.011-4.44-43.3,5.8-59,11q12.5-28,25-56ZM474,429l19,2-14,44c-30.274-.706-52.614,9.373-71,21V448c12.845-6.027,26.695-12.253,42-16Zm295,0c27.694,4.4,42.7,9.231,62,18v48c-18.506-10.011-44.437-26.541-75-18-14.6,4.079-45.295,32.623-68,16l18-45c20.22-.383,27.024-12.65,43-17ZM651,445c2.962,5.071-2.316,25.35-5,33-43.786-13.341-66.647,17.372-107,18q0.5-1,1-2ZM465,541c15.486-.055,29.173-0.037,41,4,12.667,4.324,25.651,18.4,44,15,26.708-4.956,48.567-24.559,84-18l-9,45c-34.067-.071-47.715,16.611-77,21-27.276,4.087-42.22-16.807-64-21-33.031-6.358-55.816,11.966-76,20V559l32-13Zm294,0c32.635-.8,53.205,5.793,72,18v48c-15.368-9.606-38.2-25.455-67-20-16.318,3.09-25.471,13.295-39,18-25.522,8.876-61.4-3.325-76-16l17-38C705.766,563.591,724.541,556.534,759,541Z"/>
  <path id="Color_Fill_2" data-name="Color Fill 2" class="cls-1" d="M617.185,651.763c16.665-83.325,28.387-134.728,45.052-218.053h-1c-62.66,27.664-126.682,56.6-189.343,84.264v-6C508.557,395.985,547.337,292.988,584,177c30.125,0.092,42.465.665,69.9,1.956C629.67,255.659,573.33,357.341,538,439c61.994-24.331,130.637-56.352,192.631-80.683v3C695.967,447.975,684.663,481.342,650,568"/>
</svg>
