<svg xmlns="http://www.w3.org/2000/svg" width="1240" height="1196" viewBox="0 0 1240 1196">
  <defs>
    <style>
      .cls-1 {
        fill-rule: evenodd;
      }
    </style>
  </defs>
  <path class="cls-1" d="M129.117,632.117s6,100,198,146,414.9-54.413,532-132c132.8-87.985,352-322,224-494s-452-70-554-24-312,196-370,322S129.117,632.117,129.117,632.117Zm857-520s144.5,96.191-29,347-466.312,352.794-642,304-105.771-267.727-46-343c78.239-98.531,107.963-138.389,256-235C663.3,94.941,714.61,79.162,833,77S986.117,112.117,986.117,112.117Z"/>
  <path id="Color_Fill_6" data-name="Color Fill 6" class="cls-1" d="M313,860c8.6-.383,13.275.65,17,5l-1,3c-5.351-1.425-8.526-4.857-14-3-3.289,1.643-3.193,2.032-5,5l1,3c10.9,4.222,22.7,4.577,19,21-9.074,4.965-17.388,3.743-26-1v-2l1-2c6.129,1.256,9.752,5.241,15,4l6-3q-1-3.5-2-7l-18-7c-1.05-5.265-.35-8.461,1-13Zm-152,1,23,2,4,5q-0.5,5-1,10-1,2-2,4l-19,3v12h-5V861Zm34,0h26v4l-21,1v11h19v4l-19,1q0.5,5.5,1,11h21v4H195V861Zm35,0c22.219-1.767,38.383,8.7,20,22l10,14h-7l-10-14-8,1v13h-5V861Zm36,0h5c-0.271,11.642.57,22.146,3,30l8,3c3.85-2.5,5.838-2.617,8-7q0.5-13,1-26h5c1.364,24.947.116,41.128-24,35C266.007,887.684,265.652,876.546,266,861Zm86,0,6,1q7.5,17.5,15,35h-6q-2.5-4.5-5-9H345q-2.5,4.5-5,9h-4v-1Zm27,0h5v16h19V861h5v36h-5V881l-19,1v15h-5V861Zm52,0,6,1q7.5,17.5,15,35h-6q-2.5-4.5-5-9H424q-2.5,4.5-5,9h-4v-1Zm40,0,6,1q7.5,17.5,15,35h-6q-2.5-4.5-5-9H464q-2.5,4.5-5,9h-4v-1Zm28,0c5.766,0.611,5.628,1.624,9,4l16,21V861h5v36h-4l-21-26v26h-5V861Zm56,0c13.345-.5,20.846,1.06,28,6,3.764,9.685,3,18.115-2,26-7.411,2.641-14.686,4.112-26,4V861Zm53,0,6,1q7.5,17.5,15,35h-6l-5-9H601l-5,9h-4v-1Zm28,0h26v4l-21,1v11h19v4l-19,1q0.5,5.5,1,11h21v4H636V861Zm34,0c22.219-1.767,38.383,8.7,20,22l10,14h-7l-10-14-8,1v13h-5V861Zm50,0,6,1q7.5,17.5,15,35h-6l-5-9H713l-5,9h-4v-1Zm28,0h5v16h19V861h5v36h-5V881l-19,1v15h-5V861Zm68,0,6,1q7.5,17.5,15,35h-6l-5-9H809l-5,9h-4v-1Zm27,0h5v36h-5V861Zm16,0c22.219-1.767,38.383,8.7,20,22l10,14h-7l-10-14-8,1v13h-5V861Zm53,0c4.238,0.312,3.964-.062,6,2l11,15,3-2,9-15h5v36h-5q-0.5-13-1-26v2l-11,14-2-1-9-15h-1v26h-5V861Zm45,0h5v36h-5V861Zm15,0c5.766,0.611,5.628,1.624,9,4l16,21V861h5v36h-4l-21-26v26h-5V861Zm40,0h5c-0.27,11.642.57,22.146,3,30,2.67,1,5.33,2,8,3,3.85-2.5,5.84-2.617,8-7q0.495-13,1-26h5c1.36,24.947.12,41.128-24,35C1012.01,887.684,1011.65,876.546,1012,861Zm40,0c4.24,0.312,3.96-.062,6,2q5.505,7.5,11,15l3-2,9-15h5v36h-5q-0.495-13-1-26v2q-5.505,7-11,14c-0.67-.333-1.33-0.667-2-1l-9-15h-1v26h-5V861Zm-885,4v16c7.658,0.124,10.775-1.259,15-4l1-3q-0.5-3-1-6C177.573,865.978,174.126,865,167,865Zm68,14c9.128,0.366,13.209-.772,18-4-0.38-9.888-8.6-12.336-18-9v13Zm326-14v28l13-2c4.828-3.5,6.953-6.473,7-15q-0.5-1.5-1-3C575.8,867.11,571.587,864.745,561,865Zm114,14c9.128,0.366,13.209-.772,18-4-0.38-9.888-8.6-12.336-18-9v13Zm189,0c9.128,0.366,13.209-.772,18-4-0.38-9.888-8.6-12.336-18-9v13ZM354,869l-6,15h13v-1Zm79,0-6,15h13v-1Zm40,0-6,15h13v-1Zm137,0-6,15h13v-1Zm112,0-6,15h13v-1Zm96,0-6,15h13v-1ZM177,941c11.767-.759,34.527,3.467,30,11l-4,5c-11.207-5.3-19.62-10.594-32-3l-2,6,4,8c13.915,3.343,53.75,14.39,34,36-9.174,18.58-41.378,5.39-51-2,0.667-.67,1.333-1.33,2-2l4-5c10.753,5.06,17.441,12.01,33,8l5-6q-0.5-3.5-1-7c-7.383-12.634-31.113-7.172-38-21-5.057-8.263.161-17.736,4-23Zm404,0c11.767-.759,34.527,3.467,30,11l-4,5c-11.207-5.3-19.62-10.594-32-3q-1,3-2,6l4,8c13.915,3.343,53.75,14.39,34,36-9.174,18.58-41.378,5.39-51-2,0.667-.67,1.333-1.33,2-2l4-5c10.753,5.06,17.441,12.01,33,8l5-6q-0.5-3.5-1-7c-7.383-12.634-31.113-7.172-38-21-5.057-8.263.161-17.736,4-23Zm-355,1h10c-0.945,24.451-5.256,68.51,23,63,21.163-4.13,16.962-37.616,16-63h11c1.136,35.674,4.7,80.94-39,71C221.686,1007.24,225.018,973.451,226,942Zm78,0c22.212-.544,41.726-0.58,54,8a43.168,43.168,0,0,1,1,25l-15,9,2,2q9,12.5,18,25v1H351l-20-27-17,1v26H304V942Zm106,70H399c0.679-44.322-19.5-41.9-28-70h12l21,32,3-2,19-30h12l-2,4C425.251,970.012,409.906,973.42,410,1012Zm67-70h11l31,70H508q-4-9-8-18H465q-4,9-8,18H446v-1Zm154,0h53v8l-43,1v22h38v8l-38,1v22h43v8H631V942Zm69,0c4.971-.264,8.7-0.315,11,2l23,33,2-1,23-34h10v70H758q-0.5-25.5-1-51v2l-21,30-5-1-21-31v51H700V942Zm88,0c21.008-.737,46.385-3.211,53,11,3.849,12.624-4.827,18.607-6,24,5.933,2.019,7.409,4.9,11,9,0.954,32.04-27.647,27.06-58,26V942Zm99,0h11l31,70H918q-4-9-8-18H875q-4,9-8,18H856v-1Zm56,0c37.759-1.258,78.53,9.93,60,51-8.55,18.95-31.32,19.93-60,19V942Zm105,0h11q15.495,35,31,70h-11q-4.005-9-8-18h-35q-4.005,9-8,18h-11v-1Q1032.495,976.5,1048,942ZM314,977c15.462,0.5,26.614-.247,35-6q1-5,2-10c-4.82-10.041-21.571-14.761-37-10v26Zm484-4c10.347,0.208,21.421-.064,29-2l4-6c4.56-15.387-18.825-18.751-33-14v22Zm156-23v54C1007.94,1006.54,1007.94,947.517,954,950Zm-472,6-13,30h27v-1Zm410,0-13,30h27v-1Zm161,0q-6.495,15-13,30h27v-1Q1059.995,970.5,1053,956ZM798,981v23c15.152,0.7,32.1,1.97,37-8q0.5-3,1-6l-4-6C823.066,981.4,810.8,980.884,798,981Zm-441,78c37.948-1.88,41.427,46.32,11,53C332.758,1119.74,325.166,1074.5,357,1059Zm186,0c11.324-.51,19.1,1.17,24,7-0.667.67-1.333,1.33-2,2-3.941,3.1-11.256-2.08-19-3-3.2,1.62-4.189,1.85-6,5-1.892,5.16.551,6.68,3,10a59.7,59.7,0,0,1,24,9q1,5.505,2,11c-2.176,3.49-2.315,5.83-6,8-9.554,9.46-27.052,1.14-34-4q0.5-1.5,1-3c1-.67,2-1.33,3-2,7.655,3.35,11.982,8.07,23,6l5-6q-0.5-3-1-6-13.5-5.505-27-11-1-6-2-12C534.26,1063.55,537.124,1062.71,543,1059Zm-258,1h8v27l27-27h9q-10.5,10.995-21,22,11,14.505,22,29H320q-8.5-11.505-17-23l-10,9v14h-8v-51Zm113,0h41v6H422v45h-8v-45H398v-6Zm71,0h7q11.5,25.5,23,51h-8q-3.5-6.495-7-13H459q-2.5,6.495-5,13h-8v-1Q457.5,1085.01,469,1060Zm110,0h8c-0.668,16.4-2.892,38.58,8,44,3,0.67,6,1.33,9,2,13.065-8.59,11.665-23.92,11-46h8c0.553,21.04.279,37.71-8,49-12.779,4.13-22.855,2.53-32-4C579.355,1093.28,578.887,1076.86,579,1060Zm57,0c14.662-.65,33.733-2.17,39,7,4.185,4.55,2.77,11.06,1,17l-11,6,3,3,12,18h-9q-7-10.005-14-20H644v20h-8v-51Zm73,0h7q11.5,25.5,23,51h-8q-3.5-6.495-7-13H699q-2.5,6.495-5,13h-8v-1Q697.5,1085.01,709,1060Zm40,0c27.246-1.63,48.682,2.11,34,25,5.839,2.06,6.747,4.47,9,10-0.667,3.33-1.333,6.67-2,10-9.484,6.4-24.048,6.3-41,6v-51Zm73,0h7q11.5,25.5,23,51h-8q-3.5-6.495-7-13H812q-2.5,6.495-5,13h-8v-1Q810.5,1085.01,822,1060Zm63,51h-8c0.668-27.19-10.253-34.88-21-50v-1h8c1,0.67,2,1.33,3,2l13,21c1.923-1.39.6-.1,2-2l15-21h8C898.974,1079.77,885,1081.22,885,1111Zm49-51h7q11.5,25.5,23,51h-8q-3.5-6.495-7-13H924q-2.5,6.495-5,13h-8v-1Q922.5,1085.01,934,1060Zm-574,5c-15.527,7.92-20.184,21.49-9,37q5,1.995,10,4c18.515-.98,28.717-28.53,11-37C368.994,1066.24,365.651,1065.29,360,1065Zm284,1v19c11.148,0.65,21.128.89,25-6v-9C662.468,1066.65,655.009,1065.78,644,1066Zm113,0v16c11.664,0.47,17.93-.66,24-5-0.333-2.67-.667-5.33-1-8C774.23,1066.28,766.488,1065.79,757,1066Zm-285,4q-5,10.995-10,22h20v-1Zm240,0q-5,10.995-10,22h20v-1Zm113,0q-5,10.995-10,22h20v-1Zm112,0q-5,10.995-10,22h20v-1Zm-180,18v17c11.157,0.41,19.737-.21,26-4q0.5-1.5,1-3c-1-2.67-2-5.33-3-8Q769,1088.995,757,1088Z"/>
  <path class="cls-1" d="M745.117,650.117s-83.934-47.555-162-48-77.967,26.266-188,33-130-33-130-33-17.267.445,33,45,159.5,19.48,273-5,153,28,153,28-261.334,137.976-413,79-68-269-68-269,1.633,22.262,77,23,128.2-54.444,206-76,161.933,41.179,237,78,154-3,154-3l-34,42s-53.75,19.413-124-25-129.109-50.774-191-21-123.282,64.933-207,61-119-66-119-66,0.031,22.136,39,47,82.395,57.331,159,32,142.244-68.779,185-67,71.984-5.061,120,33,101,37,101,37-54.623,47.255-65,56S745.117,650.117,745.117,650.117Z"/>
  <circle cx="847.125" cy="416.125" r="34"/>
</svg>
