<svg xmlns="http://www.w3.org/2000/svg" width="1240" height="1196" viewBox="0 0 1240 1196">
  <defs>
    <style>
      .cls-1 {
        fill-rule: evenodd;
      }
    </style>
  </defs>
  <path id="Color_Fill_7" data-name="Color Fill 7" class="cls-1" d="M586,28c133.5-1.887,241.3,21.687,336,59,16.022,6.313,82.52,29.5,89,39q6.5,17.5,13,35c13,33.074,23.08,67.393,34,104,58.19,195.035,64.58,469.6,4,667-14.97,48.764-30.18,93.06-49,136q-5.5,12.495-11,25-34,13.005-68,26c-62.938,22.07-130.952,35.44-205,49-131.291,24.04-294.677-2.93-390-40-20.647-8.03-87.624-29.04-98-42q-5.5-16.5-11-33c-17.763-45.87-30.165-94.294-45-144-18.029-60.409-29.676-125.521-43-192q-4-41.5-8-83c-4.02-25.472-5.383-62.982-1-90l10-88c13.347-66.725,27.153-131.038,46-191,11.307-35.972,22-70.709,35-104l13-36c8.753-10.673,46.313-23.66,61-30,59.066-25.5,122.884-43.6,195-58Zm1,10-86,8c-71.717,13.866-135.526,30.734-194,56-15.073,6.513-53.037,19.03-62,30l-10,28c-13.838,35.226-25.06,71.748-37,110-18.313,58.668-31.919,121.761-45,187l-10,88c-5.078,30.994-2.762,73.521,2,102q4,37.5,8,75c13.377,66.862,25.427,132.282,44,193,13.154,43,24.785,84.658,39,125l13,39c8.4,10.52,68.758,30.31,86,37,94.321,36.61,252.968,66.48,385,43,76.395-13.58,148.228-25.21,212-50l63-24q6-13.995,12-28c15.87-36.76,29.32-74.633,42-116,57.52-187.677,61.26-449.506,7-645-12.53-45.142-24.09-87.655-40-128q-6.5-17.5-13-35c-8.706-10.784-70.4-31.1-88-38C821.753,58.439,717.375,37.923,587,38Zm20,8h10l24,53H629l-4-12H601c-0.875,5.317-2.837,9.933-6,13H585V99Zm57,24,22,3,3-21,11,2q-4,25.5-8,51l-11-1,3-22-22-3-3,21h-6l-5-1V94q4-23.5,8-47h4l7,1Zm-89,2q2,11.5,4,23c-14.983,12.353-46.535,19.463-53-7-7.32-29.967,20.476-39.913,42-33l1,2-5,8c-10.233-3.447-16.146-2.567-24,3-5.962,15.059-1.054,25.048,12,30,7.043-.644,10.633-2.984,15-6q-0.5-4.5-1-9c-5.18.942-9.01,2.271-14,1q-0.5-4-1-8Zm37-11-7,17h15V77ZM499,66c10.269,2.874,21.9,38.018,23,50h-2l-7,2L477,97l12,32-10,3L460,82l8-3,37,21q-6-15-12-30Zm243,1c13.08,0.709,29.915,8.726,34,19,3,9.472-2.121,18.108-9,21-9.41,5.02-19.465-1.065-28-3q-2.5,7-5,14l-11-3Zm8,12-6,17c5.7,1.382,10.218,5.075,16,3l4-2q1-3,2-6C762.738,83.774,758.094,81.256,750,79Zm44,11c11.067,2.214,28.082,12.526,35,20l-2,2q-0.5,2-1,4c-10.53-1.417-17.907-8.468-26-13l-2,1q-2.5,4-5,8,0.5,1,1,2l21,13-3,6h-4l-20-12v2c-2.961,2.719-5.419,6.775-5,10l24,13-3,8h-4l-32-20ZM441,91h3l4,6c-1.259,3.023.018,1.2-2,3l-21,14,4,9,24-12,4,7-2,3-20,11,2,2,5,8c7.461-4.18,19.411-15.16,27-12q1,3.5,2,7l-35,19-26-45Zm162,18c51.941-.811,93.356,6.387,130,21,192.4,76.728,313.5,332.886,253,611,64.14-1.123,99.25,69.769,61,119-16.32,21-46.65,35.339-78,41-16.013,2.892-36.512-4.92-48,0-9.985,28.245-39.08,55.081-59,75-60.937,60.93-170.941,138.93-304,106-89.68-22.19-154.278-69.86-203-133-11.812-15.307-27.47-30.917-35-50-58.78,9.4-114.879-15.561-132-57-20.98-50.779,18.109-101.736,67-101v-3c-20.806-61.622-22.014-166.452-8-236,32.1-159.3,95.054-277.7,214-349,28.224-16.919,61.15-29.176,97-38Zm0,10-44,6c-35.889,8.9-69.062,21.629-97,39C354.645,230.751,294.013,338.092,261,480c-10.038,43.149-19.831,108.281-11,162,5.757,35.022,10.869,69.247,16,101,19.422,5.223,34.581,23.506,27,49l-7,17q6,14,12,28c26.227-6.253,53.551-54.529,69-75,20.27-26.858,75.5-90.789,128-81l30,11c2.159-5.324,7.585-11.255,5-15-15-13.912-51.46-1.608-67,4-29.271,10.562-134.021,56.367-175,35-20.356-10.614-2.616-45.883-8-65-1.1-3.906-6.172-4.561-5-12l10-37q44-163.983,88-328l2-1c19.9,1.874,37.159,18.717,58,23,42.34,8.7,61.37-26.685,101-21,43.586,6.253,58.829,33.564,86,55h5c12.013-14.073,46.242-46.865,66-51,20.453-4.28,43.5,3.566,61,7,42.55,8.348,83.172-.99,110-16l6,3q39,163.483,78,327c4.865,17.572,14.846,41.264,14,59q-0.5,1.5-1,3c4.125,5.569,8.137,3.716,9,14-3.627,5.6-5.375,9.311-12,12,3.891,7.533,4.078,12.866,1,21-42.078,23.986-104.307,8.153-141-9q0.5,1,1,2c36.331,15.486,73.573,76.2,98,107,7.329,9.242,16.453,22.384,29,26l13-33q-2.5-7-5-14c-4.7-21.626,7.467-38.089,23-43,8.161-54.246,27.17-122.421,16-190-7.377-44.619-9.947-86.28-22-125C919.605,271.32,811.007,118.334,603,119Zm245,45q-0.5,11.5-1,23l-11-7c1.909-6.273,1.8-20.389,0-24l-5-3h-2l-10,12h-3l-6-5,2-2c4.178-9.9,22.317-36.113,33-39,11.094,7.227,25.954,14.6,26,33-2.62,5.478-4.967,8.84-11,11ZM393,122c10.286,5.357,30.967,31.07,34,43l-6,4-42-9,20,25c-1.259,3.023.018,1.2-2,3q-2.5,2.5-5,5l-3-2-30-38v-3l7-5,41,10-20-25v-3Zm452,10c-2.715,5.646-7.413,8.863-8,14,6.833,3.255,8.422,7.932,18,9l5-6q-0.5-1.5-1-3C856.917,139.007,850.568,135.419,845,132Zm39,22h3l29,29v2l-6,5h-2l-10-10-30,29h-2l-6-7,30-30C883.162,163.941,877.453,163.145,884,154Zm-539,9,7,4v4l-19,19,6,7,2,1,18-18q2.5,2.5,5,5h2c-2.184,7.255-11.363,15.821-17,20l8,8c8.4-7.021,18.042-25.431,27-14v2l-27,27-38-36v-2Zm-22,88H300l24,18-2,4-4,6c-10.266-6.78-37.553-21.615-41-34l5-7,28,2q-4.5-14-9-28c3.489-3.424,3.98-7.391,8-5l40,30v2l-6,6-28-20Q319,238,323,251Zm609-42c8.316,0.243,7.909,2.205,12,6l-28,51h-2l-5-7,6-13q-7.5-9-15-18c-6.651,2.589-10.764,3.175-16,0l-3-4v-1Zm-4,11-16,6,8,10,2-1Zm35,26c4.906,1.741,5.857,4.793,8,9l-12,26h28c2.315,4.107,4.512,6.593,4,11l-43,25c-3.023-1.259-1.2.018-3-2l-4-6,2-1,27-18-27-1v-1l11-23c-10.072,5.113-18.443,14.282-31,16l-3-9ZM255,282l46,25q-2.5,4.5-5,9l-19-9-10,20,18,9v4l-4,6-46-25,4-9,20,10,9-21-17-8Zm603,2c-23.048,17.392-77.535,18.567-113,11-14.922-3.184-35.464-9.844-53-6-28.855,6.325-40.1,40.044-66,51V475l13,18c20.542,30.36,71.291,76.836,74,117,49.674-23.814,78.452,13.943,113,29,15.432,6.726,30.19,10.242,48,15,17.677,4.722,60.749,11,76-1q-34-136.486-68-273C876.927,361.37,868.463,293.417,858,284Zm-330,1-26,5c-53.574,18.557-70.107,20.944-121-4L285,641c11.591,20.488,54.811,24.757,85,17,37.693-9.686,61.088-35.006,99-44,19.439-4.611,43.419.682,61,3,0.542-32.861,18.658-42.869,33-61l53-82V341C607.856,320.266,558.4,285.537,528,285Zm458,37h23l3,7c-2.28,7.5-32.877,41.761-40,44l-3-10,8-9-9-21c-6.622.383-12.389,0.91-15-3l-3-7Zm-286,5c68.946-2.083,59.532,100.974,24,125-29.865,20.194-80.767-10.25-76-39l9-4c15.133,6.647,11.172,22.7,19,36l8,3c13.68-1.022,26.049-10.218,27-24l-4-5c-24.552-3.351-61.032-32.251-44-65C670.725,339.147,684.612,334.622,700,327Zm-172,3c7.738,7.138,33.525,88.284,38,104,4.548-1.2,8.93-3.018,11-1l4,8c-13.629,4.167-40.468,22.062-52,18l-3-7,17-11q-12.5-42.495-25-85h-3l-16,3q-1-4.5-2-9C505.044,340.806,518.135,337.453,528,330Zm451,2,6,13,12-13H979Zm-268,8c-22.281,12.379-26.8,47.624-11,68,29.755,0.463,34.345-31.344,27-60C723.14,343.129,718.338,341.505,711,340ZM258,352h19l-3,11-15,1-7,21,8,8q-1,5-2,10c-13.376-2.553-28.91-28.763-41-38v-1q1-4.5,2-9Zm-17,11-10,1,14,13q2.5-6.5,5-13v-1h-9Zm787,23,6,1c0.33,3.333.67,6.667,1,10q-11.505,16-23,32h1q14.5-4.5,29-9c2.58,2.819,3.51,5.917,4,11-17.02,2.113-35.81,16.03-52,13q-0.5-4-1-8,12-17,24-34l-31,9c-2.58-2.819-3.511-5.917-4-11ZM247,404l8,2-10,37-50-15,3-11,42,12Zm-41,41c37.873-1.871,43.85,44.713,17,55C187.065,513.768,169.7,464.707,206,445Zm830,42-9,1q-2.505-12.5-5-25l-12,2v3q2.5,13.5,5,27l-9,1q-4-19-8-38,0.5-1,1-2l51-10c0.33,0.333.67,0.667,1,1q3.495,19,7,38c-0.33.333-.67,0.667-1,1l-8,1v-2l-6-26h-4l-8,2Q1033.505,474,1036,487ZM206,457c-3.169,2.487-5.9,3.272-8,7-11.967,11.353,3.459,25.93,17,26,5.978-3.129,10.09-3.742,13-10,2.929-4.605,2.373-11.377-1-15C223.669,458.133,216.7,456.509,206,457Zm417,32q1,26.5,2,53c3.337,17.658,29.412,74.7-7,77-45.865-18.539,6.629-77.6-7-119v2l-28,44c-14.286,20.274-50.4,39.855-43,79,3.872,20.474,15.65,32.285,23,48q0.5-1,1-2c2.871-4.292,3.4-9.269,8-12h5l9,23v-2l14-23h4l8,24h1q4.5-14,9-28c12.131,1.977,10.443,18.719,15,28h1l8-28,4-2c6.964,4.478,6.186,12.462,10,20,0.314-6.484,1.39-10.849,5-14h4l14,13c2.378-7.3.478-12.582,2-18l10-8c5.04-7.012,6.463-19.6,8-27,2.63-12.67-3.644-27.643-8-35l-37-44Q640.5,513.5,623,489Zm409,37,9-1q1.005,12,2,24l-24,2c-10.01-16.091-14.29-43.631,8-51,30.29-10.014,42.01,20.035,34,44-0.67.333-1.33,0.667-2,1q-4.005-2-8-4c2.5-12.2,4.91-17.034-2-27-8.67-2.935-12.63-3.546-22-1-6.43,7.722-11.67,18.117-2,27l8-1Q1032.505,532.5,1032,526ZM227,545q-0.5,6-1,12l-52-6v-3q0.5-4,1-8l23,1-6-6-14-18q0.5-6.5,1-13l21,23,31-18q-0.5,5.5-1,11c-4.649,8.331-16.818,10.066-23,17l5,7Zm390,9c-4.542,14.841-10.9,32.133-7,48l9,7,4-1C629.044,590.037,625.94,568.051,617,554Zm450,6q0.495,20,1,40h-9q-0.495-14.5-1-29h-12c0.32,7.919,1.84,22.713-1,26l-7,1q-0.495-13-1-26h-13q0.495,15,1,30h-9q-1-20-2-40Zm-884,4q-0.5,14.5-1,29l13-1V567l9,1q-0.5,12-1,24,0.5,1,1,2l13-1V564l9,1q-0.5,20-1,40l-52-1q0.5-20.5,1-41Zm833,47,52,2c0.52,17.577-.62,31.077-7,41a40.816,40.816,0,0,1-19,1,36.166,36.166,0,0,1-8-11q-10.005,6-20,12V644q9.5-6.5,19-13v-9h-18C1015.33,618.334,1015.67,614.666,1016,611Zm-280,1-24,10-3,15h1c42.612-14.627,126.8,35.512,169,47,24.3,6.617,65.538,6.084,79-10-2.978-3.794-5.533-5.15-5-10-51.881,9.767-102-1.194-139-20C788.381,630.979,774.612,612.4,736,612Zm-527,2c5.269,0.362,8.243,1.293,11,4,11.37,7,6.917,30.747-1,38-11.178-6.081-2.838-11.82-1-24l-6-7h-1c-2.133,1.786-2.433,1.352-4,4-7.157,14.54-9.42,36.344-31,21-3.677-10.5-4.59-25.667,3-33l2,2,5,2c-1.709,8.5-7.268,16.406,0,23,12.59-3.34,7.235-22.236,18-28Zm265,9-29,10c-47.889,26.439-88.71,50.069-156,27-0.908,5-2,10.643,0,13,15.8,14.509,58.76,14.893,84,8l60-21c34.686-15.169,47.037-32.219,99-25l-3-8C511.936,623.82,494.183,623,474,623Zm568,0c-0.61,9.53-.8,17.61,5,21,4.46,1.749,6.8-.059,10-2q0.495-9.5,1-19h-16ZM494,642c-49.319,22.05-133.863,74.937-204,44v2q-1,6-2,12c1.622,3.2,1.849,4.189,5,6,18.039,11.991,59.895.426,77-4,36-9.315,109.6-47.392,147-41l21,7c3.933-7.209,4.322-17.275-4-22C524.054,641.272,508.037,641.836,494,642Zm232,1c-8.581,3.473-19.023,3.029-24,10-6.291,7.711-1.215,15.211,3,23,9.782-5.362,19.061-11.484,32-14,27.463-5.34,50.353,15.216,68,23,22.061,9.731,44.953,19.019,70,25,19.252,4.6,71.275,3.964,75-13l-4-5c-18.145,10.824-53.434,5.224-72,0-29.2-8.216-54.713-16.848-81-28C772.011,655.1,755.8,643.147,726,643Zm338,25v11l-52-5V663Zm-516,2a384.643,384.643,0,0,1-23,42c23.151,2.07,55.881,18.412,64,36q0.5-1,1-2c10.227-10.579,15.846-29.745,33-33,10.489,11.594,15.161,27.385,25,40l2-1c10.779-22.24,37.053-30.315,59-42l-16-36-2,1-4,9h-6l-11-11v2q-3,12.5-6,25l-3,1c-7.734-5.1-6.693-16.57-11-25-4.872,8.82-4.716,23.491-13,29-7.508-4.8-9.688-18.354-12-28h-1c-1.114,9.015-4.288,23.948-10,29l-6-2-7-28-2,1c-2.39,8.255-8.151,19.872-15,24l-3-1-9-22v2l-5,7h-4Zm190,2c-11.345,5.172-19.986,7.663-29,14l6,13,3-3c17.88-8.453,31.249-17.145,59-13C767.62,675.726,754.511,671.912,738,672ZM479,691c-38.463,17.113-60.157,23.023-85,54-24.787,30.908-47.439,73.145-80,96-24.738,17.364-66.334,16.842-76-14q2.5-5.5,5-11l27-6c22.7-16.058,17.089-53.061-11-59-55.995-11.839-80.646,66.1-52,103,25.666,33.063,88.381,47.457,138,28,18.871-7.4,35.757-21.265,57-25,29.894-5.257,39.343,30.736,27,51-9.2,15.11-24.525,24.7-33,41,1.321,3.827,0,2.08,3,4,9.927,5.4,30.74,2.818,43,5-1.544-30.146,37.937-55.745,52-30,9.616,10.311-.1,27.424,3,41h1l4-1c3.725-1.826,4.416-3.1,6-7,4.991-19.357-13.784-26.949-8-43,1.9-4.8,4.326-7.012,9-9v-1l-19-10c-67.109-40.954,28.757-62.406,18-121-6.4-34.874-47.387-31.442-49-59l4-7c14.741-5.237,33.889-2.633,52-2l4-6-2-3C505.253,695.339,497.229,690.956,479,691Zm273,0c-12.8,5.7-22.324,6.566-30,17,18.331-3.849,46.645-1.17,56,8q-0.5,3-1,6c-8.742,19.352-39.442,18.476-45,41-6.521,26.429,13.5,61.139,25,76,7.122,9.2,19.295,11.709,22,26,6.384,33.726-96.481,51.13-125,60,9.1,19.474,10.011,39.1,5,62,24.982,21.68,85.3,51.43,114,12,17.556-24.122,24.33-74.321-24-62l-5,6c0.111,17.052,9.054,21.066,11,35l-3,1c-27.474,9.009-63.519-42.869-17-60q-1-6-2-12l3-3,4,1c1.923,1.392.6,0.1,2,2,2.344,3.327,2.983,7.074,3,13-5.325,9.734-17.2,9.568-22,19-6.758,12.045,5.835,23.249,15,26-16.58-54.545,57.651-54.146,58-6l53-6q0.5-2.5,1-5c-12.823-15.441-72.876-80.374-14-91,23.464-4.235,47.753,18.171,65,25,49.48,19.59,112.48,5,138-28,28.45-36.787,3.96-115.234-52-103-27.864,6.092-33.973,42.957-11,59,6.738,4.706,22.509,4.248,29,8,11.57,38.833-45.665,40.388-70,25C872.707,803.611,851.828,690.871,752,691ZM475,717l-6,2v4c6.092,6.281,14.334,7.014,22,12,19.332,12.574,33.718,41.345,23,72l-16,33c25.06,10.078,45.18,28.074,79,31v-3c-13.088-41.007,3.135-78.5,7-112C555.261,731.909,529.64,717.04,475,717Zm249,0-4,6c-35.106-5.944-44.878,27.971-69,40,12.125,30.823,10.873,71.5,5,107,28.663-8.781,69.561-14.371,88-34-11.619-21.557-35.647-63.6-14-91l36-25v-1ZM646,872c1.331-19.243,9.816-38.278,6-62-5.879-36.544-19.494-57.916-31-85l-3,3c-36.28,18.92-41.556,95.866-30,145C606.945,873.947,627.969,872.687,646,872Zm317-60-10,28,1,1c21.762,2.212,34.326,1.951,44-13q-0.5-2-1-4h-2l-20-3Zm-686,4c-6.71,6.652-22.161,4.444-29,11l2,6c10.176,7.812,21.981,11.825,39,8C286.079,833.913,282.872,820.43,277,816Zm471,30c-53.424,41.144-203.04,56.3-254,2-7.665,3.22-14.65,6.427-18,14-6.65,27.456,41.8,38.917,62,45,70.616,21.263,189.971,6.7,231-36v-5C764.712,857.107,757.718,849.349,748,846ZM403,867c-24.482,11.517-46.992,19.841-73,30,39.5,73.614,113.511,139.79,199,167,171.434,54.56,327.083-62.5,384-168-24.561-8.475-54.619-33.066-82-27-38.27,28.909,37.3,58.871,28,86-8.1,16.387-45.645,9.177-64,15-6.705,73.58-114.269,72.77-142,24l-5,4c-4.248,9.22-16.274,21.99-25,27q-17.5-12.5-35-25-22.5,10-45,20c-53.345,16.23-84.587-15.8-99-52-22.1-1.426-46.508-.852-58-13,0.681-23.667,64.463-68.672,28-86Zm119,47c-5.617,2.843-9.371,3.3-13,8,3.127,15.113,25.848,64.431-16,56l-6-7c-3.146-12.362,2.3-25.988,0-38l-3-1c-7.17-3.9-17.218-.988-24,1-5.473,7.225-8.246,12.239-8,26,3.674,1.687,5.985,2.5,8,6,1.889,5.351-1.461,8.179-2,12,40.778,52.42,62.353,40.02,120,16-4.212-22.039-2.629-44.051,0-67C556.793,925.292,540.734,916.736,522,914Zm120,12c-14.02,5.959-37.281,2.393-54,2-5.742,46.856-12.35,49.648,21,74,5.657,4.13,9.817,10.94,16,9,10.006-19.75,36-27.315,27-61C649.465,940.509,647.953,931.9,642,926ZM445,1062c13.787-.46,24.639,5.11,27,16l-8,3c-4.826-4.45-7.345-7.99-14-11-1.666,1.33-3.334,2.67-5,4,1.639,9.53,12.173,15.2,18,21,0.448,8.76-.6,13.09-6,16-12.733,11.6-31.071-5.65-35-14v-1l7-3h3c2.569,7.13,7.312,9.11,13,13l7-3v-5C437.8,1088.44,425.364,1073.95,445,1062Zm335,2c11.108,5.06,37.265,28.16,41,40l-7,3c-5.52-1.65-7.075-4.93-11-8q-10.5,4.005-21,8c0.377,6.47.815,11.46-3,14l-7,3q0.5-28.5,1-57Zm-302,10q5,1.005,10,2l-9,36c1.333,2.33,2.667,4.67,4,7l9,3c10.87-7.46,15.4-22.76,18-38q5.5,1.005,11,2c-2.73,20.51-16.229,59.8-45,40C461.142,1115.77,472.525,1087.93,478,1074Zm275,1h3q-5,16.995-10,34c-0.919,7.86,5.727,13.87,4,22-3,.33-6,0.67-9,1v-2c-12.351-23.96-15.1-23.25-33-40,3.107-2.81,7.2-3.75,13-4l16,15c0.667-.33,1.333-0.67,2-1q3-10.995,6-22Zm29,4v17h1q6-2.505,12-5l-2-3Zm-258,9c14.547,0.62,29,4.67,38,11a32.985,32.985,0,0,1,0,19q-6,3.495-12,7,4.5,10.005,9,20h-6c-2.333-.67-4.667-1.33-7-2q-4-9.495-8-19c-3-.33-6-0.67-9-1q-1.5,7.995-3,16h-5c-2-.67-4-1.33-6-2Q519.5,1112.505,524,1088Zm162,4c2.333,0.67,4.667,1.33,7,2q14,22.005,28,44v1c-5.337.86-8.977,0.99-13-1q-2.5-4.005-5-8-11,1.995-22,4-1.5,6.495-3,13c-3.333.33-6.667,0.67-10,1q6.5-27.495,13-55C682.667,1092.67,684.333,1092.33,686,1092Zm-100,5h11l18,52q-6-.495-12-1c-0.7-5.11-2.112-9.11-5-12q-10-.495-20-1-2.5,5.505-5,11H561Zm33,2c13.015-.54,27.857-1.6,38,2,4.263,8.28,2.813,14.62-2,21,4.823,1.72,5.958,3.78,9,7,0.444,8.01-.127,12.22-5,15-6.946,6.46-25.211,4.68-37,6-0.333-.33-0.667-0.67-1-1Q620,1124.01,619,1099Zm-85,0-3,15h2l12,3c4.46-2,5.64-2.95,8-7-1-2.67-2-5.33-3-8Zm96,8v12q9-1.005,18-2c1.749-5.26,1.511-5.54-1-10H630Zm58,0q-2,8.505-4,17h1l13-3v-1Q693,1113.505,688,1107Zm-98,4q-3.5,7.995-7,16,6,0.495,12,1h1Q593,1119.495,590,1111Zm41,29q9-.495,18-1c1.667-1.67,3.333-3.33,5-5v-1c-2.064-2.65-1.736-3.27-5-5H631v12Z"/>
</svg>
