<svg xmlns="http://www.w3.org/2000/svg" width="1240" height="1196" viewBox="0 0 1240 1196">
  <defs>
    <style>
      .cls-1 {
        fill: none;
        stroke: #000;
        stroke-width: 15px;
        fill-rule: evenodd;
      }
    </style>
  </defs>
  <path class="cls-1" d="M613.328,711.312A133.547,133.547,0,1,1,479.781,844.859,133.547,133.547,0,0,1,613.328,711.312ZM610,663c94.118,0,112.293,31.411,134,48s98.628,74.08,157,58,97.279-97.844,20-160-142.046-68.99-184-46c-37.44,20.517-34,45-34,45s-42.094,20.315-92,21-84-26-84-26-0.752-51.99-61-64c-32.875-40.081-10.449-84.97,4-106s61.886-52,135-52,103.134,31.067,135,43,66.01,14,103,14,72.281-41.668,30-65-29.215-53-117-53-86,30-86,30-24.674,7-62,7-51-7-51-7-45.741-49.253-131-20-110.745,65.167-85,90,52,18,52,18,27.619,22.849,13,59-26,51-26,51S249.586,605.317,263,700s146.869,49.473,178,31,52-45,52-45S515.882,663,610,663ZM796,513c43.546,0,96.688,2.039,151,49s88.45,67.922,114,73,32.63,1.773,49-14,10.83-79.582-20-118-55.18-71.7-99-84-67.119,1.131-76,19-31.755,45-118,45-100-30-100-30-19.19-26-92-26-98.925,41.92-98,69,18.91,66,102,66,94.6-23.479,110-34S752.454,513,796,513ZM280,567c45.789-59.084,62.3-111.7,27-147s-107.957,25.062-132,54S90.645,584.645,132,626,234.211,626.084,280,567ZM611,243s88,3.1,88,41-88,34-88,34-84,1.168-84-37S611,243,611,243Z"/>
</svg>
