<svg xmlns="http://www.w3.org/2000/svg" width="1240" height="1196" viewBox="0 0 1240 1196">
  <defs>
    <style>
      .cls-1 {
        fill: none;
        stroke: #000;
        stroke-width: 15px;
        fill-rule: evenodd;
      }
    </style>
  </defs>
  <path class="cls-1" d="M352,1001l117-64s20,2.981,20-55V392L668,292s35.117-25.883,59-2,27,26.531,27,52V541s-3.462,41.331-47,65-80,42-80,42-16,3.226-16,26V800L857,658s29-13.582,29-60V366s-7.82-33.218-31-46S648,201,648,201s-13.457-8-28-8-29,9-29,9L383,320s-29,15.585-29,45S352,1001,352,1001Z"/>
</svg>
