<svg xmlns="http://www.w3.org/2000/svg" width="1240" height="1196" viewBox="0 0 1240 1196">
  <defs>
    <style>
      .cls-1 {
        fill-rule: evenodd;
      }
    </style>
  </defs>
  <path class="cls-1" d="M715,1003s-61.4,15.9-121,10c2.334,14.37,8,35,8,35s56.043-.23,78-3,56-12,56-12Z"/>
  <path class="cls-1" d="M806,973l13,31s32.134-18.168,50-29,44-32,44-32l-19-28s-31.267,24.845-48,36S806,973,806,973Z"/>
  <path class="cls-1" d="M964,839l15,36s81.88-96.214,95-216-10.81-201.22-39-261c-27.39-58.1-96.606-157.81-181-201s-140.611-64-248-64-222.193,63.157-240,76-22,18-22,18l35,17s99.676-72.711,211-76,172.363,22.852,206,37,117.563,62.161,181,157,67.33,194.745,67,241-19.67,131.044-41,173S964,839,964,839Z"/>
  <path class="cls-1" d="M505,1033l-30-45s-79.764-24.516-166-110c-57.031-54.363-92-156-92-156l-44-35s20.63,117.954,115,218S505,1033,505,1033Z"/>
  <path class="cls-1" d="M198,605s-0.248-34.356,1-61,11-57,11-57l-30-23s-10.2,41.459-13,73-4,59-4,59Z"/>
  <path class="cls-1" d="M210,389l31,12s17.5-30.975,28-46,33-42,33-42l-27-21s-25.567,28.62-35,45S210,389,210,389Z"/>
  <path class="cls-1" d="M149,626L491,727l84,350L401,821Z"/>
  <path class="cls-1" d="M214,206L758,451l243,555L669,544Z"/>
  <path class="cls-1" d="M149,400L623,590l190,493L530,684Z"/>
</svg>
