<svg xmlns="http://www.w3.org/2000/svg" width="1240" height="1196" viewBox="0 0 1240 1196">
  <defs>
    <style>
      .cls-1 {
        fill-rule: evenodd;
      }
    </style>
  </defs>
  <path id="Color_Fill_1" data-name="Color Fill 1" class="cls-1" d="M575,64c86.643-.922,174.855,2.368,247,20l103,22,42,85c23.631,52.142,42.87,108.1,60,166,55.36,187.108,27.69,424.99-36,584-14.314,35.735-22.58,77.53-44,107q-58.993,20.505-118,41c-39.723,13.73-78.619,15.27-123,26-14.818,3.58-89.015,14.58-108,8-10.709-3.71-24.931-1.73-38-4q-46.5-7.995-93-16-53.994-15-108-30-33.5-10.995-67-22-22.5-51-45-102c-23.774-57.639-36.877-121.147-52-187-42.787-186.307,8.226-408.148,66-540,17.792-40.6,31.14-84.846,56-119,55.247-10.076,112.333-19.723,170-31Zm-2,10-59,4c-45.5,8.286-92.659,12.618-135,22-15.1,3.346-47.672,2.922-57,13-22.113,23.419-45.052,93.017-59,127-74.894,182.476-97.879,426.513-30,636,14.88,45.922,30.294,87.115,48,128,5.045,11.65,9.319,31.89,19,39l46,15c48,18.1,101.586,30.86,155,43,116.782,26.54,251.256,3.55,344-28,15.16-5.16,92.94-26.96,98-34q7-17.505,14-35c13.893-32.388,25.621-65.453,38-101,21.55-61.886,33.37-128.93,48-201,11.4-56.148,10.27-151.443,0-207-6.09-32.914-5.69-62.569-14-93-28.76-105.353-60.391-204.173-111-288L803,90C733.35,74.171,655.94,74.212,573,74ZM435,103c9.614,8.4,13.3,45.421,15,60l-1,1-13,1v-2q-4.5-18-9-36h-1q-2,20.5-4,41c-25.545,1.351-20.6-22.191-34-35l7,39-12,2c-4.694-5.8-14.552-53.157-13-61l20-3,20,36h2q2-20,4-40Zm201,1,13,1v5c6.521-4.835,21.029-9.937,29-2,7.1,4.648,7.425,33.124,3,42H670c-4.539-8.64-.417-28.031-5-36l-4-1c-4.427,1.351-6.646,1.543-9,5q-2,15.5-4,31c-5.984.207-10.57-.314-14-2Q635,125.5,636,104Zm-43,1c20.6-.988,31.168,6.5,31,26h-2l-32,1q1,3.5,2,7l10,3c5.185-3.344,13.9-10.341,21-3-6.94,12.793-23.118,13.622-39,9C569.984,130.61,573.336,114.813,593,105Zm155,5c0.235,18.644-.884,51.837-14,58-10.354,6.6-32.89,2.262-38-6q-1-3.5-2-7,0.5-1,1-2c10.934,3.238,18.943,8.861,30,7l3-2q1-5,2-10h-1c-8.061,5.055-15.015,4.824-25,2-10.892-13.788-13.895-37.733,9-43,8.993-2.069,14.994,2.8,19,6C736.992,112,738.463,109.684,748,110Zm82-3,12,3q-2.5,10-5,20c11.82-2.581,23.459-2.173,28,8,3.079,11.616-4.956,28.33-9,38l-13-2q-0.5-1-1-2c4.027-9.051,9.532-22.439,8-33-3.4-1.4-7.963-2.809-12-1-8.988,4.651-10.635,20.9-14,31l-14-3v-1C814.4,147.882,819.859,120.177,830,107Zm-292,1c11.073-.442,16.179.974,22,5,3.105,9.155,7.623,28.435,5,39l-13,1-1-1c-0.017-11.654-1.557-26.356-6-34-28.441.069-4.24,22.589-15,36-4.239,1.986-9.864.622-13-1-0.2-14.057-5.888-33.537-2-43h12q1,2,2,4Zm-64,6c19.253-.773,29.688,7.016,31,24h-2c-8.933,3.417-24.076.571-31,6l4,6,9,1c5.722-4.891,7.347-7.322,19-7l2,1-1,3c-18.106,23.629-63.686,8.4-48-22C460.386,119.439,467.46,117.543,474,114Zm116,10h19v-3l-3-5-8-2-8,5v5Zm181-8c17.416-.626,25.523,2.326,34,10q-3,19.5-6,39h-1c-8.4-.857-8.464-4.361-13-7-4.51-2.624-28.927,13.281-31-12l6-8c6.477-5.474,20.189-2.583,30-5v-5l-2-1c-11.983-1.8-17.326,3.167-27-2q0.5-1.5,1-3Zm-53,1c-3.387,2.476-5.04,2.9-7,7v13l4,5c8.4,0.276,10.683-.959,15-4,1.025-4.5,3.076-9.159,1-14-1.65-3.655-2.389-4.31-6-6Zm-242,7c-4.112,3.275-9.049,9.851,1,10l12-2c-1.016-4.433-.661-4.016-4-6C482.646,124.116,480.742,123.977,476,124Zm298,18-5,3q0.5,3,1,6a17.563,17.563,0,0,0,16-1q1-4,2-8H774ZM581,166c84.96-1.1,159.816,6.109,226,24l43,10,39,85c16.964,38.787,27.347,81.685,40,124,37.053,123.918,19.04,302.119-16,411-12.78,39.712-24.738,76.479-40,112l-6,16-53,19c-49.17,19.718-101.144,29.509-162,40-19.769,3.41-49.253.91-66-2-57.123-9.932-103.116-17.554-150-34l-63-21-12-29c-15.5-33.13-26.347-67.958-38-106-63.9-208.626-21.667-468.32,69-619l110-22Zm123,90c0.27-21.514,5.809-59.913-2-77-53.435-.862-122.633-13.316-174,1q-0.5,39.5-1,79h1c15.792-8.511,37.635-11.871,58-15,6.836-17.6,17.266-30.524,24-46,17.484,5.658,27.624,32.533,36,48ZM521,182c-29.742,1.353-104.106,13.582-125,25l-28,61c-23.726,55.592-45.476,117.631-55,185,20.724,1.872,39.983,20.573,63,16V332a729,729,0,0,1,100-54l44-17Q520.5,221.5,521,182Zm190,0v78c42.274,4.891,114.926,49.685,146,71-0.22,21.446-3.135,130.369,3,139,14.141-3.847,52.016-17.886,61-16-0.959,38.45-25.721,50.457-55,62q0.5,1,1,2c16.528,5.5,31.872,6.987,51,3l1,1v5c-16.176,11.345-30.663,30.791-54,34-26.2,3.6-36.546-21.965-60-13-0.174,13.413-5.428,20.521-9,30-8.743-2.917-13.088-13.641-20-19l-38,11,36,63-29,64,6,15c14.7-4.652,32.3-26.478,43-37l77,5q-1.5,30.5-3,61c-34.885.252-34.007-12.64-55-17l-24,24q0.5,2,1,4l21,12c0.263,11.4,3.385,53.116-1,58l-48,29c-26.762,16.833-50.8,37.512-75,57l-51,57c-6.011,8.187-10.891,21.135-20,26-6.343-15.421-20.234-27.566-30-40-46.656-59.4-94.868-87.973-162-127q-2-32.5-4-65l20-10-25-25c-12.875,8.989-28.88,23.956-54,17q-0.5-30.5-1-61l76-4c9.056,11.227,30.869,34.43,45,39l14-22-34-66,28-56-1-1-34-9-15,18-3-2-10-27c-28.637-3.886-25.326,6.753-50,11-24.8,4.269-53.222-22.952-63-36a11.3,11.3,0,0,1,4-4c12.158,6.668,43.691,6.3,49-6-35.487-.362-42.319-29.116-54-54l-1,2c-11.675,26.922-4.876,62.389-10,95v72q3,37,6,74c10.057,52.165,20.025,102.378,37,147,6.767,17.789,25.96,86.116,38,93l63,20c112.089,38.25,222.2,44.25,337,4l77-27c11.1-8.19,38.371-101.742,45-123,35.157-112.74,49.464-283.426,15-410-12.759-46.858-26.466-92.852-45-135l-31-66C799.558,202.181,758.435,185.607,711,182Zm-99,26c-30.539,46.552-24.523,85.491,1,132l4-3c6.248-13.521,18-24.688,23-40C651.767,260.99,631.855,222.717,612,208Zm36,45c0,5.189.324,7.627,3,10l61,13c47.245,16.153,90.033,39.191,129,64q0.5,64.994,1,130l10-1q-1-50.495-2-101c-1.51-10.058,3.537-28.684-2-35-11.864-11.416-30.035-17.881-45-26C757.22,282.165,710.846,262.378,648,253Zm-64,2c-63.214-.079-161.3,53.3-202,81v98c0,9.508-2.883,30.433,2,36h8V341c64.672-33.2,107.576-57.847,191-77Q583.5,259.5,584,255Zm378,10c5.76-.178,9.73.388,13,2q2,6,4,12c-10.975,11.934-34.162,47.869-48,53q-2.5-6.5-5-13c13.67-13.392,7.05-17.867,1-36-6.911.387-14.244,1.1-17-3l-4-10,1-1Zm-673,1c19.093-.129,30.31,8.782,46,13v4q-2.5,6-5,12c-8.071-4.29-27.94-14.322-37-12l-6,5q0.5,4,1,8c5.366,10.647,24.841,13.255,36,18-0.479,6.357-2.354,11.75-6,15l-67-25q2-7.5,4-15l24,8C275.674,280.57,280.217,274.99,289,266ZM835,470c0.217-25.426,4.509-112.43-3-129l-53-30c-37.1-19.087-79.155-36.088-129-41,0.036,17.475-5.265,29.67-10,42l27-16c29.969-12.933,70.587-3.568,86,16v1c-62.889,2.06-48.073,63.8-66,111-5.031,13.247-13.907,19.815-24,28v1c19.777,6.382,15.953,19.527,27,34h1c4.038-8.31,13.644-12.852,21-18C755.5,438.552,784.914,467,835,470ZM578,271l-68,18c-39.723,14.5-77.918,34.953-112,56q0.5,62.994,1,126h1c58.715-13.514,107.35-31.352,144,18l2-2c-0.71-22.637,15.471-25.871,29-37-52.463-29.285-25.463-52.478-47-104-9.716-23.244-29.15-22.417-47-37l1-2c19.327-6.475,41.754-22.862,72-15,14.275,3.711,27.54,17,38,19v-1c-7.691-9.075-5.493-25.488-9-39h-5Zm377,8-16,2c0.949,5.828,3.335,11.748,7,15l15-17h-6ZM693,296l-26,7c-31.054,13.759-55.792,46.343-69,78-7.795,18.682-9.749,52.246,6,63,17.326,11.831,57.158,7.766,68-6,32.544-41.321,1.64-113.226,66-129l-2-3C722.623,301.366,712.92,296.061,693,296Zm-162,1c-12.119,4.973-25.711,3.826-35,11v1c71.471,20.343,16.16,134.7,101,138v-1l-6-6c-12.431-36.82,3.435-67.1,18-93C595.771,319.227,572.135,296.782,531,297Zm442,19c2.212,2.063,1.882,1.382,3,5l8-3,11,8q-0.5,2-1,4l-12,4q0.5,5,1,10l-8,3-4-7-23,10c0.972,4.364,1.794,4.877,1,9l-5,2-5-2c-1.593-4.7-4.607-11.034-2-17,5.306-10.052,21.146-10.473,30-17-1.146-3.394-1.073-2.4-1-6Zm3,40c6.58,0.461,8.885,2.406,13,5,3.628,8.888,8.467,17.229,6,30-6.623,8.438-28.249,16.756-39,20-3.609-11.3,1.244-14.722-7-21-2.881-7.543-4.3-13.258-2-22l7-6h8c8.43,4.449,13.542,13.793,17,23h4l2-2v-7c-2.9-4.221-7.035-6.114-9-11v-9Zm-713,8,47,7v1l-3,13-5,1c6.616,15.121.229,24.616-8,33-32.271-.076-9.9-24.147-24-40l-4,1-3,4c-0.276,8.4.959,10.683,4,15l-4,12-4-2C241.651,400.606,254.792,371.335,263,364Zm696,11-3,9c4.008,5.919,6.959,8.317,15,5v-3l-9-11h-3Zm-676,8c-0.977,5.4.227,15.614,3,20h1l6-1,1-3c2.025-4.5.289-9.375-1-13Zm707,28c20.08,0.8,25.31,34,10,43h-1c-3.372-11.162-1.273-10.589,0-22q-2.5-4-5-8l-2,1c-0.47,14.6-1.909,26.649-8,35l-9,1c-12.677-5.66-25.362-40.294-4-46l4,11-6,9,3,11,5,1q0.5-1.5,1-3c4.29-11.8,1.227-22.7,7-31ZM293,461q-1,8-2,16l-71-12v-7q1-4,2-8h1Zm310-7,14,17h1q4-7.5,8-15Zm-27,3c-15.919,9.322-24.674,13.659-24,40l8,7h1c-1.1-20.383,16.9-51.2,36-35,21.381,10.519,6.615,55.186,13,81l15-1c-0.742-27.563-6.006-73.455,14-81,27.236-11.708,29.473,19.048,35,35l2-1,6-8c0.7-26.521-26.465-50.449-51-32-13.822,10.393-7.418,31.761-14,50h-1C614.857,480,611.792,455.777,576,457Zm172,3-27,9c-18,10.812-58.7,49.42-65,70h10c71.192-31.648,83.983-6.988,128,29,1.226-4.806,2.254-26.9,6-31,34.32-12.688,57.765,46.97,102-5l-1-1c-17.688,5.448-44.711-7.1-47-21l3-1h15c23.783-6.192,33.765-24.993,42-47l-2-1c-22.886,10.937-60.344,22.1-95,14C794.17,469.662,776.158,460.228,748,460ZM434,537c-0.348,12.744,1.41,22.486,5,31l5-4c9.522-20.136,46.434-47.153,83-39,17.023,3.795,31.686,15.424,50,14v-1c-14.451-26.175-63.166-86.963-111-77-22.158,4.615-41.51,15.185-67,16-21.139.675-80-14-80-14,7.433,17.5,13.588,33.735,30,42,8.249,4.154,24.856,1.8,30,7-7.565,14.851-26.086,20.455-49,20l1,2c13.16,5.682,20.7,18.1,37,21C387.638,558.5,406.33,537.247,434,537Zm148-64c-27.788,20.786-10.946,45.682,3,65-13.514,21.94-76.616-26.254-109,5v1c27.726,4.682,91.549,15.3,127,6-0.126-25.145,1.873-61.982-9-77H582Zm49,78c36.348,0.6,104.311,8.2,123-11h-2c-23.356-18.6-66.7-4.893-85,8-8.441-3.56-13.966-3.215-19-10v-2c10.127-7.6,32.549-47.047,9-59-3.056-3.048-10.367-5.715-16-3C626.321,481.4,630.556,529.31,631,551ZM257,515c34.833-.041,43.074,50.012,13,59C232.277,585.274,217.4,533.5,257,515Zm-3,17a89.641,89.641,0,0,0-9,9c-0.649,18.136,14.708,19.429,28,14l4-9q-1-4-2-8C269.07,533.642,265.354,531.744,254,532Zm505,14-30,10q0.5,1.5,1,3l5,6,34-12-5-6Zm-290,2-8,7,1,2,31,8,4-8v-1Zm507,5,63,1v13l-39,26v2l40,1q-0.495,6-1,12l-63,1q-0.5-5.5-1-11c7.433-14,27.35-18.892,38-30v-1H975Q975.5,560,976,553Zm-471,4-37,72c10.8,18.374,30.264,42.774,34,65l-17,25,8,9,59,52c10.024-11.265,15.106-24.524,28-33,39.152-25.737,82.565,1.963,97,32l3-3,66-59-8-20,29-64c-7.878-10.643-42.1-75.8-49-75Zm71,25c3.861,8.105-24.008,42.4-20,65,3.611,20.358,18.124,28.786,23,45H561c-26.8-9.666-71.961-43.936-45-82C529.613,590.782,552.826,592.38,576,582Zm78,0c28.452,1.951,58.19,14.213,67,36,15.51,38.354-32.5,78.145-67,73v-4C694.315,655.539,666.9,616.745,654,582Zm13,8c-0.358,17.281,20.245,32.7,15,60-2.829,14.727-12.36,22.646-16,35h3c26.4-7.987,69.1-45.927,38-77C697.339,598.349,681.235,595.068,667,590Zm-103,1c-17.539,8.011-35.836,9.968-45,26-18.772,32.841,23.444,65.826,48,69l-2-3-14-27c-7.031-27.815,10.4-45.614,15-65h-2ZM283,613h4v16l-22,15v1l7,5c4.269-1.441,13.091-1.963,16,1q0.5,6.5,1,13l-71,5-2-1V653l35-2v-1l-5-6-12-10q-0.5-8.5-1-17l20,16Zm710,8c41.96,3.746,29.89,57.869-2,48q0.5-16.5,1-33h-4a115.537,115.537,0,0,0-7,10c4.586,8.275,5.531,9.577,4,21h-4C963.837,645.582,971.265,631.252,993,621Zm9,16q-0.5,9.5-1,19,4-2,8-4C1010.56,642.962,1009.12,640.063,1002,637Zm-39,38c3.839,1.76,2.909.283,4,5-4.093,9.908-11.964,18.328-6,29l10,2v-1c-9.348-15,.857-36.975,23-32,15.21,3.417,30.28,26.644,12,38,1.67,1.333,3.33,2.667,5,4q-1,5.5-2,11h-1c-17.573-1.749-51.754-3.29-58-17C941.086,697.8,953.159,680.384,963,675ZM862,734c0.645-13.665,5.6-38.789,1-49l-68-3L615,844,434,683l-69,4c-0.076,10.925-.152,47.682,7,48,17.721,3.021,33.838-10.332,44-19l60,60,93,90,92-1L779,750c6.994-6.521,29.585-36.48,37-33C832.6,723.953,835.887,734.081,862,734Zm123-42-8,7q0.5,3.5,1,7c1.713,3.881,3.161,5.246,7,7,8.5,2.672,13.315-.379,18-4v-1c0.11-8.66-1.64-9.537-5-14ZM268,707l4,1c0.736,11.128,1.7,27.432,6,36h1l8-8q-0.5-4-1-8c-2.123-4.019-5.2-4.834-8-8V709l1-2c31.443,4.553,23.623,62.058-15,54-16.831-3.511-30.138-29.217-15-45Zm-6,17c-7.238,5.469-9.028,11.915-3,20l7,2,1-1c0.232-7.478-.611-16.777-4-21h-1Zm708,13c32.65-1.787,45.52,35,20,46-4.668,3-15.491,3-19-1l6-30-2-2-10,5c-0.639,7.873.307,8.892,4,14l-4,11c-18.442-5.027-9.006-30.633-2-40Zm-359,6c-23.217,8.864-49.746,15.619-53,43l56,50h2l56-52C666.015,760.111,641.116,743.375,611,743ZM443,754l-16,10q2.5,29,5,58c37.786,7.986,117.273,72.551,139,100,7.727,9.762,30.945,42.949,39,46q-1-28-2-56c-24.2-3.545-41.47-17.816-52-35l-11-26C537.2,840.185,451.647,756.87,443,754Zm340,0-98,96-7,20c-10.889,22.248-28.186,34.134-54,42q0.5,29,1,58l3-2c12.994-34.156,89.327-96,121-116l57-35q-1-25-2-50Zm201,0c-1.974,10.178-5.606,22.947,7,15C993.286,761.4,993.208,755.4,984,754Zm-36,34,44,14-3,12-5-1c2.255,3.807,3.527,5.864,4,12q-2.5,4-5,8l-3-1-6-6c2.925-8.343,2.882-9.619-2-16l-27-9ZM289,800c34.939-1.317,41.955,55.841,12,63l-4-14c9.04-10.076,14.389-25.062-2-33l-6,3c-2.474,14.158,1.66,58.035-24,50-22.8-2.688-31-51.937-5-57l4,16-7,6c-0.111,10.364,2.828,14.378,7,20,14.287-3.676,4.81-25.535,9-39C275.454,807.112,282.763,804.266,289,800Zm650,24,42,15q0.5,1,1,2l-3,11-2,1-42-15v-4Zm48,18,12,5q-2,6-4,12l-11-4ZM672,862l-9,9c-35.067.554-79.383,4.959-105-5,9.13,19.423,25.227,35.328,49,40C634.376,911.38,680.3,874.463,672,862ZM302,910c35.818-2.06,46.289,39.2,19,51C287.973,975.278,270.009,932.73,302,910Zm611,0c37.171-1.864,41.087,45.007,12,53-23.69,6.51-41.3-21.184-30-40C899.144,916.1,905.725,913.91,913,910Zm-300,3c-0.347,16.263-5.234,55.1,3,65q0.5,1,1,2l3-2V913h-7ZM434,995c18.822,0.422,33.633,5.73,36,23-0.333.67-.667,1.33-1,2l-16-3c-0.53-8.75-13.594-14.4-21-8-2.066,1.96-1.035.37-2,4,12.76,7.86,35.37,10.91,36,31-11.429,26.52-44.845,14.21-59,0-0.308-7.07-.961-9.09,2-12q5.5,1.005,11,2c7.608,9.97,6.292,11.17,21,15,4.841-1.94,6.466-2.77,9-7l-1-3c-12.1-7.7-24.622-11.69-34-22-0.267-10.24,2.031-12.68,6-18Zm391,13q6.5,2,13,4,6,19.005,12,38c-0.333.33-.667,0.67-1,1-6.263.22-13.363-2.36-16-2-7.534,1.03-13.028,9.67-27,7-4.472-4.11-7.326-5.71-8-14,7.787-9.01,21.157-10.48,29-19-1-1.33-2-2.67-3-4-14.063.74-14.076,10.54-28,7v-1C799.729,1009.62,811.036,1013.14,825,1008Zm-183,7q0.5,10.5,1,21c15.013-11.04,43.822-4.06,39,21-3.756,19.52-21.164,22.43-38,15-0.644,3.63-.4,3.03-2,5H630q-1-30.99-2-62h14Zm148,2c-1.132,25.89-9.437,67.38-38,68l-2-3c-0.667-2.33-1.333-4.67-2-7,8.039-.04,9.672-1.86,14-5v-6c-6.05-9.44-26.568-32.07-24-41,6.817-.44,10.428-1.13,15,1q7.5,12.495,15,25h1v-2q4-14.505,8-29Q783.5,1017.5,790,1017Zm-298,6q-1.5,16.005-3,32c4.127,8.73,13.071,3.95,18,0q2.5-15,5-30h1q6.5,1.005,13,2-3,22.005-6,44h-7c-2-.33-4-0.67-6-1v-6c-11.846,6.82-23.968,5.62-33-3-2.4-11.81.622-28.56,4-39Q485,1022.5,492,1023Zm213,3q11.5,1.005,23,2c6.28,9.65,5.892,28.66,11,40-0.667.67-1.333,1.33-2,2-12.909-.87-33.751,6.84-47-2q-1-5.505-2-11c6.972-10.42,19.622-10.08,31-16-0.333-1.33-.667-2.67-1-4-2-.67-4-1.33-6-2-9.7,3.58-11.548,6.87-24,6v-3C692.335,1030.38,696.8,1029.88,705,1026Zm-157,47H533q2-22.5,4-45c8.1-.17,10.237-0.47,13,5,6.846-1.58,10.8-7.74,19-2,0.667,0.33,1.333.67,2,1l-4,9c-8.5-.86-10.768-0.7-16,3Q549.5,1058.505,548,1073Zm39-42a76.141,76.141,0,0,1,28,4c3.488,9.95,1.867,29.03,5,42-8.113.24-13.786-3.74-17-4-11.465-.92-24.7,11.35-32-5q-0.5-3-1-6c6-11.79,17.89-11.44,33-14,0.333-1.33.667-2.67,1-4-0.667-.67-1.333-1.33-2-2-13.417-2.22-17.516,6.31-29,1v-3A138.639,138.639,0,0,1,587,1031Zm240,2q-7,3.495-14,7c0.747,4.45,1.25,4.2,3,7,7.336,0.26,10.436-.47,13-5C831.079,1037.97,830.18,1034.99,827,1033Zm-175,7-8,6c-0.311,5.82-.367,11.98,2,15l5,6h7c3.2-1.62,4.189-1.85,6-5,5.609-7.11.829-18.38-5-21C656.667,1040.67,654.333,1040.33,652,1040Zm66,10-15,6v4l2,3c2.333,0.33,4.667.67,7,1C716.7,1062.11,724.335,1056.13,718,1050Zm-117,6c-5.919,2.18-11.742,1.12-15,6q-0.5,1.5-1,3c1.667,1.33,3.333,2.67,5,4,6.519-.22,8.157-1.62,12-4,0.667-2.33,1.333-4.67,2-7-0.667-.67-1.333-1.33-2-2h-1Z"/>
</svg>
